{
  "accessors": [
    {
      "bufferView": 2,
      "componentType": 5126,
      "count": 36,
      "max": [
        3.9590611457824707,
        2.1562440395355225,
        0.8458297252655029
      ],
      "min": [
        -4.380224227905273,
        -1.7165045738220215,
        -4.383559226989746
      ],
      "type": "VEC3"
    },
    {
      "bufferView": 2,
      "byteOffset": 432,
      "componentType": 5126,
      "count": 36,
      "max": [
        0.8490849137306213,
        0.9905420541763306,
        -0.1372058242559433
      ],
      "min": [
        -0.7891258597373962,
        0.08849842846393585,
        -0.5995185971260071
      ],
      "type": "VEC3"
    },
    {
      "bufferView": 1,
      "componentType": 5126,
      "count": 36,
      "max": [
        0.9564416408538818,
        0.9366596937179565
      ],
      "min": [
        0.04355797916650772,
        0.04924929141998291
      ],
      "type": "VEC2"
    },
    {
      "bufferView": 0,
      "componentType": 5125,
      "count": 96,
      "type": "SCALAR"
    },
    {
      "bufferView": 2,
      "byteOffset": 864,
      "componentType": 5126,
      "count": 823,
      "max": [
        0.9238794445991516,
        1.0,
        0.9523321390151978
      ],
      "min": [
        -0.9713621139526367,
        0.19509032368659973,
        -0.8798400163650513
      ],
      "type": "VEC3"
    },
    {
      "bufferView": 2,
      "byteOffset": 10740,
      "componentType": 5126,
      "count": 823,
      "max": [
        0.9161052107810974,
        1.0,
        0.956932783126831
      ],
      "min": [
        -0.956932783126831,
        0.2889949381351471,
        -0.878624439239502
      ],
      "type": "VEC3"
    },
    {
      "bufferView": 1,
      "byteOffset": 288,
      "componentType": 5126,
      "count": 823,
      "max": [
        0.9998999834060669,
        0.43751251697540283
      ],
      "min": [
        9.997561573982239e-05,
        9.995698928833008e-05
      ],
      "type": "VEC2"
    },
    {
      "bufferView": 0,
      "byteOffset": 384,
      "componentType": 5125,
      "count": 4260,
      "type": "SCALAR"
    },
    {
      "bufferView": 2,
      "byteOffset": 20616,
      "componentType": 5126,
      "count": 36,
      "max": [
        4.325860977172852,
        1.3240773677825928,
        2.0740761756896973
      ],
      "min": [
        -4.484343528747559,
        -0.9282447099685669,
        -3.7592451572418213
      ],
      "type": "VEC3"
    },
    {
      "bufferView": 2,
      "byteOffset": 21048,
      "componentType": 5126,
      "count": 36,
      "max": [
        0.8324947357177734,
        0.9983153343200684,
        0.012299922294914722
      ],
      "min": [
        -0.666638195514679,
        0.5538964867591858,
        -0.1361975073814392
      ],
      "type": "VEC3"
    },
    {
      "bufferView": 1,
      "byteOffset": 6872,
      "componentType": 5126,
      "count": 36,
      "max": [
        0.9564416408538818,
        0.9366596937179565
      ],
      "min": [
        0.04355797916650772,
        0.04924929141998291
      ],
      "type": "VEC2"
    },
    {
      "bufferView": 0,
      "byteOffset": 17424,
      "componentType": 5125,
      "count": 96,
      "type": "SCALAR"
    },
    {
      "bufferView": 2,
      "byteOffset": 21480,
      "componentType": 5126,
      "count": 36,
      "max": [
        4.1552205085754395,
        2.159944534301758,
        0.6878005266189575
      ],
      "min": [
        -4.380224227905273,
        -1.7165045738220215,
        -4.383559226989746
      ],
      "type": "VEC3"
    },
    {
      "bufferView": 2,
      "byteOffset": 21912,
      "componentType": 5126,
      "count": 36,
      "max": [
        0.785333514213562,
        0.987567663192749,
        -0.15709485113620758
      ],
      "min": [
        -0.7388666868209839,
        0.18990808725357056,
        -0.6395270228385925
      ],
      "type": "VEC3"
    },
    {
      "bufferView": 1,
      "byteOffset": 7160,
      "componentType": 5126,
      "count": 36,
      "max": [
        0.9564416408538818,
        0.9366596937179565
      ],
      "min": [
        0.04355797916650772,
        0.04924929141998291
      ],
      "type": "VEC2"
    },
    {
      "bufferView": 0,
      "byteOffset": 17808,
      "componentType": 5125,
      "count": 96,
      "type": "SCALAR"
    },
    {
      "bufferView": 2,
      "byteOffset": 22344,
      "componentType": 5126,
      "count": 36,
      "max": [
        3.6511363983154297,
        1.7529019117355347,
        1.1328502893447876
      ],
      "min": [
        -4.238823890686035,
        -2.404752016067505,
        -4.027825355529785
      ],
      "type": "VEC3"
    },
    {
      "bufferView": 2,
      "byteOffset": 22776,
      "componentType": 5126,
      "count": 36,
      "max": [
        0.6881721615791321,
        0.9566121697425842,
        -0.2865036427974701
      ],
      "min": [
        -0.6648803353309631,
        -0.05989757925271988,
        -0.7826167345046997
      ],
      "type": "VEC3"
    },
    {
      "bufferView": 1,
      "byteOffset": 7448,
      "componentType": 5126,
      "count": 36,
      "max": [
        0.9564416408538818,
        0.9366596937179565
      ],
      "min": [
        0.04355797916650772,
        0.04924929141998291
      ],
      "type": "VEC2"
    },
    {
      "bufferView": 0,
      "byteOffset": 18192,
      "componentType": 5125,
      "count": 96,
      "type": "SCALAR"
    }
  ],
  "asset": {
    "extras": {
      "author": "Luna (https://sketchfab.com/abluna)",
      "license": "CC-BY-4.0 (http://creativecommons.org/licenses/by/4.0/)",
      "source": "https://sketchfab.com/3d-models/poppy-flower-380d82c4a1a84a77abff5c978ec2fada",
      "title": "Poppy Flower"
    },
    "generator": "Sketchfab-16.16.0",
    "version": "2.0"
  },
  "bufferViews": [
    {
      "buffer": 0,
      "byteLength": 18576,
      "name": "floatBufferViews",
      "target": 34963
    },
    {
      "buffer": 0,
      "byteLength": 7736,
      "byteOffset": 18576,
      "byteStride": 8,
      "name": "floatBufferViews",
      "target": 34962
    },
    {
      "buffer": 0,
      "byteLength": 23208,
      "byteOffset": 26312,
      "byteStride": 12,
      "name": "floatBufferViews",
      "target": 34962
    }
  ],
  "buffers": [
    {
      "byteLength": 49520,
      "uri": "scene.bin"
    }
  ],
  "extensionsUsed": [
    "KHR_materials_specular"
  ],
  "images": [
    {
      "uri": "textures/Petals.001_baseColor.png"
    }
  ],
  "materials": [
    {
      "doubleSided": true,
      "extensions": {
        "KHR_materials_specular": {
          "specularColorFactor": [
            1.0,
            1.0,
            1.0
          ],
          "specularFactor": 0.14476234594238763
        }
      },
      "name": "Petals.001",
      "pbrMetallicRoughness": {
        "baseColorFactor": [
          0.5897160829442527,
          0.5897160829442527,
          0.5897160829442527,
          1.0
        ],
        "baseColorTexture": {
          "index": 0
        },
        "metallicFactor": 0.0,
        "roughnessFactor": 0.8152405797808145
      }
    },
    {
      "doubleSided": true,
      "name": "Material.001",
      "pbrMetallicRoughness": {
        "baseColorFactor": [
          0.0,
          0.0,
          0.0,
          1.0
        ],
        "metallicFactor": 0.0,
        "roughnessFactor": 0.712598
      }
    }
  ],
  "meshes": [
    {
      "name": "Object_0",
      "primitives": [
        {
          "attributes": {
            "NORMAL": 1,
            "POSITION": 0,
            "TEXCOORD_0": 2
          },
          "indices": 3,
          "material": 0,
          "mode": 4
        }
      ]
    },
    {
      "name": "Object_1",
      "primitives": [
        {
          "attributes": {
            "NORMAL": 5,
            "POSITION": 4,
            "TEXCOORD_0": 6
          },
          "indices": 7,
          "material": 1,
          "mode": 4
        }
      ]
    },
    {
      "name": "Object_2",
      "primitives": [
        {
          "attributes": {
            "NORMAL": 9,
            "POSITION": 8,
            "TEXCOORD_0": 10
          },
          "indices": 11,
          "material": 0,
          "mode": 4
        }
      ]
    },
    {
      "name": "Object_3",
      "primitives": [
        {
          "attributes": {
            "NORMAL": 13,
            "POSITION": 12,
            "TEXCOORD_0": 14
          },
          "indices": 15,
          "material": 0,
          "mode": 4
        }
      ]
    },
    {
      "name": "Object_4",
      "primitives": [
        {
          "attributes": {
            "NORMAL": 17,
            "POSITION": 16,
            "TEXCOORD_0": 18
          },
          "indices": 19,
          "material": 0,
          "mode": 4
        }
      ]
    }
  ],
  "nodes": [
    {
      "children": [
        1
      ],
      "matrix": [
        1.0,
        0.0,
        0.0,
        0.0,
        0.0,
        2.220446049250313e-16,
        -1.0,
        0.0,
        0.0,
        1.0,
        2.220446049250313e-16,
        0.0,
        0.0,
        0.0,
        0.0,
        1.0
      ],
      "name": "Sketchfab_model"
    },
    {
      "children": [
        2
      ],
      "name": "root"
    },
    {
      "children": [
        3,
        5,
        7,
        9,
        11
      ],
      "matrix": [
        1.0,
        0.0,
        0.0,
        0.0,
        0.0,
        2.220446049250313e-16,
        1.0,
        0.0,
        0.0,
        -1.0,
        2.220446049250313e-16,
        0.0,
        0.0,
        0.0,
        0.0,
        1.0
      ],
      "name": "GLTF_SceneRootNode"
    },
    {
      "children": [
        4
      ],
      "matrix": [
        0.5,
        0.0,
        0.0,
        0.0,
        0.0,
        0.391343552440187,
        0.31120768622174905,
        0.0,
        0.0,
        -0.31120768622174905,
        0.391343552440187,
        0.0,
        -0.016079477965831757,
        0.5527074337005615,
        0.17736199498176575,
        1.0
      ],
      "name": "Petal_0"
    },
    {
      "mesh": 0,
      "name": "Object_4"
    },
    {
      "children": [
        6
      ],
      "matrix": [
        0.22063805162906647,
        0.0,
        0.0,
        0.0,
        0.0,
        0.22063805162906647,
        0.0,
        0.0,
        0.0,
        0.0,
        0.22063805162906647,
        0.0,
        0.0,
        0.09723323583602905,
        0.0,
        1.0
      ],
      "name": "Pistil_1"
    },
    {
      "mesh": 1,
      "name": "Object_6"
    },
    {
      "children": [
        8
      ],
      "matrix": [
        -0.49487786274994605,
        -0.036454483032886884,
        0.06137565988932944,
        0.0,
        -0.053229920878191034,
        0.4748870060735651,
        -0.14713567543525008,
        0.0,
        -0.04756549677389277,
        -0.15216242022684412,
        -0.4739030717218049,
        0.0,
        -0.024493861943483353,
        0.5593735575675964,
        0.3457554876804352,
        1.0
      ],
      "name": "Petal.001_2"
    },
    {
      "mesh": 2,
      "name": "Object_8"
    },
    {
      "children": [
        10
      ],
      "matrix": [
        -0.008587139112987736,
        -0.001886208461694982,
        0.43617433677753875,
        0.0,
        -0.33841655527065173,
        0.2752629018105666,
        -0.0054721853681152,
        0.0,
        -0.2751833030281598,
        -0.3384554928046266,
        -0.006881273532239708,
        0.0,
        0.01340949535369873,
        0.6374926567077637,
        0.02159196138381958,
        1.0
      ],
      "name": "Petal.002_3"
    },
    {
      "mesh": 3,
      "name": "Object_10"
    },
    {
      "children": [
        12
      ],
      "matrix": [
        0.0781598308845923,
        -0.01711196963476763,
        -0.4288631438331364,
        0.0,
        0.3943533695142024,
        0.1749285410752682,
        0.06489067943244126,
        0.0,
        0.16941613781813397,
        -0.3992900164723941,
        0.04680788173799831,
        0.0,
        -0.1322098970413208,
        0.7398005723953247,
        0.02159196138381958,
        1.0
      ],
      "name": "Petal.003_4"
    },
    {
      "mesh": 4,
      "name": "Object_12"
    }
  ],
  "samplers": [
    {
      "magFilter": 9729,
      "minFilter": 9987,
      "wrapS": 10497,
      "wrapT": 10497
    }
  ],
  "scene": 0,
  "scenes": [
    {
      "name": "Sketchfab_Scene",
      "nodes": [
        0
      ]
    }
  ],
  "textures": [
    {
      "sampler": 0,
      "source": 0
    }
  ]
}
